<svg xmlns="http://www.w3.org/2000/svg" xml:space="preserve" width="2000" height="560" data-id="lg_6Wu1FmyKvKhYlPdOhv" data-version="1" viewBox="0 0 2000 560"><g data-padding="20"><g transform="translate(10 11.814)scale(.9578)"><rect width="463.899" height="323.18" x="396.198" y="-281.65" fill="none" rx="0" ry="0" transform="translate(400.5 518.53)"/><path fill="#ff0" d="M959.247 488.31h-48.74q1.82-8.79 1.82-14.03t-.21-7.89-.56-5.66q-.35-3-.84-6.7t-.9-8.59q-3.22-33.37-22.77-54.88-8.65-9.5-18.71-14.45-10.05-4.96-16.55-4.96-6.49 0-9.98.84-7.82 23.46-7.82 49.01 0 22.63 2.37 33.8 3.77 16.76 11.59 33.65h-41.75q3.35-8.38 3.35-35.26t4.05-50.27 10.54-41.69q6.5-18.29 14.53-32.05 8.02-13.75 16.05-24.02 8.03-10.26 15.16-17.59 7.12-7.33 11.87-12.92h43.99q-6.01 6.84-6.01 19.13 0 5.59 1.82 18.3l3.49 25.41q19.13 131.83 34.21 150.82m-111.72-131.13q5.45-2.09 11.45-2.09 6.01 0 10.83.84 4.81.83 9.56 2.79 10.2 3.91 17.04 12.43-6.84-35.89-8.38-43.85l-4.89-24.44-7.96 9.5q-16.75 20.11-27.65 44.82m123.88 62.71v-30.73q15.36 4.05 55.58 4.05t56.42-4.05v30.73q-16.2-4.05-54.74-4.05h-6.43q-37.42 0-50.83 4.05m199.83-64.24q-16.2 0-16.2 19.13 0 79.32 2.65 93.42 1.54 8.52 3.91 12.71l4.19 7.4h-49.57q4.47-10.61 5.23-17.73.77-7.12 1.33-15.22 1.12-16.48 1.12-44.27 0-33.66-1.12-61.45l-1.54-38.4q-.55-14.52-2.51-20.25-3.07-9.08-10.05-16.34h73.87q33.79 0 48.88 6.7 15.92 6.99 15.92 23.88 0 14.81-11.04 27.79-10.33 12.01-27.09 19.14 2.1 53.62 33.66 102.92 13.54 21.36 27.65 33.23h-52.37q-13.69-18.71-25.28-75.83-3.91-19.83-5.09-32.95-1.19-13.13-1.96-15.85-.77-2.73-2.44-4.4-3.35-3.63-12.15-3.63m32.19-24.93q3.84-4.12 5.44-8.87 1.61-4.75 1.61-9.14 0-4.4-1.19-8.8t-4.68-7.75q-7.68-7.54-26.81-7.54-7.12 0-11.52.55-4.4.56-6.91 3.08-4.33 4.19-4.33 21.36 0 15.09 3.21 19.27 5.73 7.41 17.32 7.41t17.8-2.73q6.22-2.72 10.06-6.84M996.252 21.615q0-1.275 1.275-1.275h58.65q1.275 0 1.275 1.275V35.64h20.4V21.615c0-11.9-9.775-21.675-21.675-21.675h-58.65c-11.9 0-21.675 9.775-21.675 21.675V35.64h20.4Zm120.275 30.175h-179.35c-5.525 0-10.2 4.675-10.2 10.2v34h66.725c5.525 0 10.2 4.675 10.2 10.2v2.55c0 4.25 5.1 9.35 12.75 11.475v-.425c0-5.525 4.675-10.2 10.2-10.2s10.2 4.675 10.2 10.2v.425c7.65-2.125 12.75-7.225 12.75-11.475v-2.55c0-5.525 4.675-10.2 10.2-10.2h66.725v-34c0-5.525-4.675-10.2-10.2-10.2"/><path fill="#ff0" d="M1037.052 141.465v2.125c0 5.525-4.675 10.2-10.2 10.2s-10.2-4.675-10.2-10.2v-2.125c-16.15-2.975-28.475-12.325-32.3-24.65h-57.375v72.675c0 5.525 4.675 10.2 10.2 10.2h179.35c5.525 0 10.2-4.675 10.2-10.2v-72.675h-57.375c-3.825 12.325-16.15 21.675-32.3 24.65"/></g><path fill="transparent" stroke="transparent" d="M763 0h474v560H763z"/></g></svg>